<svg width="100" height="91" viewBox="0 0 100 91" fill="none" xmlns="http://www.w3.org/2000/svg">
<path d="M0 6C0 2.68629 2.68629 0 6 0H94C97.3137 0 100 2.68629 100 6V85C100 88.3137 97.3137 91 94 91H6C2.68629 91 0 88.3137 0 85V6Z" fill="#FF5F5B"/>
<path d="M55.9973 41.6574C53.5618 41.6574 51.5884 43.6299 51.5884 46.0643C51.5884 48.4986 53.5618 50.4728 55.9973 50.4728C58.4327 50.4728 60.4061 48.4986 60.4061 46.0643C60.4061 43.6299 58.4327 41.6574 55.9973 41.6574ZM45.4159 41.6574C42.9804 41.6574 41.007 43.6299 41.007 46.0643C41.007 48.4986 42.9804 50.4728 45.4159 50.4728C47.8514 50.4728 49.8248 48.4986 49.8248 46.0643C49.8248 43.6299 47.8514 41.6574 45.4159 41.6574ZM50.1737 20.4896L50.4013 19.6329C50.7663 18.258 50.269 16.7985 49.1403 15.9295C48.0116 15.0657 46.472 14.9599 45.2375 15.6703L33.9737 22.1342C32.2842 23.1037 31.7005 25.2579 32.6704 26.9466C33.6404 28.6353 35.7972 29.2222 37.4849 28.2474L41.4142 25.9946L38.9029 35.4483C38.6224 36.5077 38.8482 37.6358 39.5166 38.503C40.185 39.3703 41.4973 39.8947 42.5924 39.8947L59.4647 39.8948C61.2177 39.8948 62.6603 38.6114 62.9354 36.9368L67.4677 20.5046L50.1737 20.4896Z" fill="white"/>
<path d="M22.2045 75.1626L17.8068 69.2947H16.4134V75.1626H14.4382V62.0717H16.4134V67.6008H17.0589L22.0064 62.0717H24.4162L19.1811 67.9332L24.6143 75.1626H22.2045ZM29.7056 75.3608C28.7852 75.3608 27.9819 75.1498 27.2958 74.7279C26.6097 74.3061 26.0771 73.7159 25.6978 72.9573C25.3185 72.1988 25.1289 71.3125 25.1289 70.2983C25.1289 69.2798 25.3185 68.3892 25.6978 67.6264C26.0771 66.8636 26.6097 66.2713 27.2958 65.8494C27.9819 65.4275 28.7852 65.2166 29.7056 65.2166C30.6261 65.2166 31.4293 65.4275 32.1154 65.8494C32.8015 66.2713 33.3342 66.8636 33.7134 67.6264C34.0927 68.3892 34.2823 69.2798 34.2823 70.2983C34.2823 71.3125 34.0927 72.1988 33.7134 72.9573C33.3342 73.7159 32.8015 74.3061 32.1154 74.7279C31.4293 75.1498 30.6261 75.3608 29.7056 75.3608ZM29.712 73.7563C30.3086 73.7563 30.8029 73.5987 31.195 73.2833C31.587 72.968 31.8768 72.5483 32.0643 72.0241C32.256 71.5 32.3519 70.9225 32.3519 70.2919C32.3519 69.6654 32.256 69.0902 32.0643 68.566C31.8768 68.0376 31.587 67.6136 31.195 67.294C30.8029 66.9744 30.3086 66.8146 29.712 66.8146C29.1112 66.8146 28.6126 66.9744 28.2163 67.294C27.8242 67.6136 27.5323 68.0376 27.3406 68.566C27.1531 69.0902 27.0593 69.6654 27.0593 70.2919C27.0593 70.9225 27.1531 71.5 27.3406 72.0241C27.5323 72.5483 27.8242 72.968 28.2163 73.2833C28.6126 73.5987 29.1112 73.7563 29.712 73.7563ZM36.4157 78.8444V65.3444H38.2821V66.936H38.4419C38.5527 66.7315 38.7125 66.495 38.9213 66.2265C39.1301 65.9581 39.4199 65.7237 39.7907 65.5234C40.1614 65.3188 40.6515 65.2166 41.2608 65.2166C42.0534 65.2166 42.7608 65.4169 43.383 65.8174C44.0051 66.218 44.4931 66.7954 44.8468 67.5497C45.2047 68.3039 45.3837 69.2116 45.3837 70.2727C45.3837 71.3338 45.2069 72.2436 44.8532 73.0021C44.4995 73.7563 44.0137 74.338 43.3958 74.7471C42.7779 75.1519 42.0726 75.3544 41.28 75.3544C40.6834 75.3544 40.1955 75.2542 39.8162 75.0539C39.4412 74.8536 39.1472 74.6193 38.9341 74.3508C38.7211 74.0823 38.557 73.8437 38.4419 73.6349H38.3269V78.8444H36.4157ZM38.2885 70.2535C38.2885 70.9438 38.3887 71.549 38.589 72.0688C38.7892 72.5887 39.079 72.9957 39.4583 73.2897C39.8375 73.5795 40.302 73.7244 40.8517 73.7244C41.4228 73.7244 41.9 73.5731 42.2836 73.2706C42.6671 72.9637 42.9569 72.5483 43.1529 72.0241C43.3532 71.5 43.4533 70.9098 43.4533 70.2535C43.4533 69.6058 43.3553 69.0241 43.1593 68.5085C42.9675 67.9929 42.6777 67.5859 42.29 67.2876C41.9064 66.9893 41.427 66.8402 40.8517 66.8402C40.2978 66.8402 39.829 66.9829 39.4455 67.2684C39.0662 67.5539 38.7786 67.9524 38.5826 68.4637C38.3865 68.9751 38.2885 69.5717 38.2885 70.2535ZM46.9434 72.5674H48.8993C48.9249 72.968 49.106 73.2769 49.4426 73.4943C49.7836 73.7116 50.2246 73.8203 50.7658 73.8203C51.3155 73.8203 51.7843 73.7031 52.1721 73.4687C52.5598 73.2301 52.7537 72.8615 52.7537 72.3629C52.7537 72.0646 52.6792 71.8046 52.53 71.5831C52.3851 71.3572 52.1784 71.1825 51.91 71.0589C51.6458 70.9353 51.3326 70.8735 50.9703 70.8735H49.3723V69.3714H50.9703C51.5115 69.3714 51.9164 69.2478 52.1848 69.0007C52.4533 68.7535 52.5875 68.4446 52.5875 68.0738C52.5875 67.6733 52.4426 67.3515 52.1529 67.1086C51.8674 66.8615 51.4689 66.7379 50.9576 66.7379C50.4377 66.7379 50.0051 66.8551 49.66 67.0894C49.3148 67.3196 49.1337 67.6179 49.1167 67.9843H47.1863C47.199 67.4346 47.3652 66.9531 47.6848 66.5397C48.0087 66.1221 48.4434 65.7983 48.9888 65.5681C49.5385 65.3338 50.1628 65.2166 50.8617 65.2166C51.5904 65.2166 52.2211 65.3338 52.7537 65.5681C53.2864 65.8025 53.6976 66.1264 53.9874 66.5397C54.2814 66.9531 54.4284 67.4282 54.4284 67.9652C54.4284 68.5063 54.2665 68.9495 53.9426 69.2947C53.623 69.6356 53.2054 69.8806 52.6898 70.0298V70.1321C53.0691 70.1576 53.4057 70.2727 53.6998 70.4772C53.9938 70.6818 54.2239 70.9524 54.3901 71.289C54.5563 71.6257 54.6394 72.0071 54.6394 72.4332C54.6394 73.034 54.4732 73.5539 54.1408 73.9929C53.8127 74.4318 53.3567 74.7706 52.7729 75.0092C52.1934 75.2436 51.5307 75.3608 50.785 75.3608C50.0605 75.3608 49.4107 75.2478 48.8354 75.022C48.2644 74.7919 47.8105 74.468 47.4739 74.0504C47.1415 73.6328 46.9647 73.1384 46.9434 72.5674ZM58.4858 72.4843L62.8132 65.3444H64.8714V75.1626H62.9986V68.0163L58.6903 75.1626H56.6129V65.3444H58.4858V72.4843ZM74.0952 69.4289V71.0845H68.777V69.4289H74.0952ZM69.3139 65.3444V75.1626H67.4411V65.3444H69.3139ZM75.4311 65.3444V75.1626H73.5646V65.3444H75.4311ZM80.8452 75.3799C80.223 75.3799 79.6605 75.2649 79.1577 75.0348C78.6548 74.8004 78.2564 74.4616 77.9624 74.0184C77.6726 73.5752 77.5277 73.0319 77.5277 72.3884C77.5277 71.8345 77.6342 71.3785 77.8473 71.0206C78.0604 70.6626 78.348 70.3792 78.7102 70.1704C79.0724 69.9616 79.4773 69.8039 79.9247 69.6974C80.3722 69.5909 80.8281 69.5099 81.2926 69.4545C81.8807 69.3863 82.358 69.3309 82.7244 69.2883C83.0909 69.2414 83.3572 69.1669 83.5234 69.0646C83.6896 68.9623 83.7727 68.7961 83.7727 68.566V68.5213C83.7727 67.963 83.6151 67.5305 83.2997 67.2237C82.9886 66.9169 82.5241 66.7634 81.9062 66.7634C81.2628 66.7634 80.7557 66.9062 80.3849 67.1917C80.0185 67.473 79.7649 67.7862 79.6243 68.1313L77.8281 67.7223C78.0412 67.1257 78.3523 66.6441 78.7614 66.2777C79.1747 65.9069 79.6499 65.6384 80.1868 65.4723C80.7237 65.3018 81.2884 65.2166 81.8807 65.2166C82.2727 65.2166 82.6882 65.2635 83.1271 65.3572C83.5703 65.4467 83.9837 65.6129 84.3672 65.8558C84.755 66.0987 85.0724 66.446 85.3196 66.8977C85.5668 67.3451 85.6903 67.9268 85.6903 68.6427V75.1626H83.8239V73.8203H83.7472C83.6236 74.0674 83.4382 74.3103 83.1911 74.549C82.9439 74.7876 82.6264 74.9858 82.2386 75.1434C81.8509 75.3011 81.3864 75.3799 80.8452 75.3799ZM81.2607 73.8458C81.7891 73.8458 82.2408 73.7414 82.6158 73.5326C82.995 73.3238 83.2827 73.0511 83.4787 72.7144C83.679 72.3735 83.7791 72.0092 83.7791 71.6214V70.3558C83.7109 70.424 83.5788 70.4879 83.3828 70.5475C83.1911 70.6029 82.9716 70.6519 82.7244 70.6946C82.4773 70.7329 82.2365 70.7691 82.0021 70.8032C81.7678 70.8331 81.5717 70.8586 81.4141 70.8799C81.0433 70.9268 80.7045 71.0056 80.3977 71.1164C80.0952 71.2272 79.8523 71.387 79.669 71.5958C79.4901 71.8004 79.4006 72.0731 79.4006 72.414C79.4006 72.887 79.5753 73.245 79.9247 73.4879C80.2741 73.7265 80.7195 73.8458 81.2607 73.8458Z" fill="white"/>
</svg>
