<svg width="326" height="91" viewBox="0 0 326 91" fill="none" xmlns="http://www.w3.org/2000/svg">
<g clip-path="url(#clip0_843_290)">
<path fill-rule="evenodd" clip-rule="evenodd" d="M42.4687 0.597656C42.4687 3.91137 39.7825 6.59766 36.4687 6.59766C33.155 6.59766 30.4687 3.91137 30.4687 0.597656C30.4687 0.395958 30.4787 0.196585 30.4981 0L0 0L-1.53236e-06 91H30.482C30.4732 90.867 30.4687 90.7329 30.4687 90.5977C30.4687 87.2839 33.155 84.5977 36.4687 84.5977C39.7825 84.5977 42.4687 87.2839 42.4687 90.5977C42.4687 90.7329 42.4643 90.867 42.4555 91L326 91L326 0L163 0L42.4394 0C42.4588 0.196585 42.4687 0.395958 42.4687 0.597656ZM36.4687 24.5977C39.7825 24.5977 42.4687 21.9114 42.4687 18.5977C42.4687 15.2839 39.7825 12.5977 36.4687 12.5977C33.155 12.5977 30.4687 15.2839 30.4687 18.5977C30.4687 21.9114 33.155 24.5977 36.4687 24.5977ZM42.4687 36.5977C42.4687 39.9114 39.7825 42.5977 36.4687 42.5977C33.155 42.5977 30.4687 39.9114 30.4687 36.5977C30.4687 33.2839 33.155 30.5977 36.4687 30.5977C39.7825 30.5977 42.4687 33.2839 42.4687 36.5977ZM36.4687 60.5977C39.7825 60.5977 42.4687 57.9114 42.4687 54.5977C42.4687 51.2839 39.7825 48.5977 36.4687 48.5977C33.155 48.5977 30.4687 51.2839 30.4687 54.5977C30.4687 57.9114 33.155 60.5977 36.4687 60.5977ZM42.4687 72.5977C42.4687 75.9114 39.7825 78.5977 36.4687 78.5977C33.155 78.5977 30.4687 75.9114 30.4687 72.5977C30.4687 69.284 33.155 66.5977 36.4687 66.5977C39.7825 66.5977 42.4687 69.284 42.4687 72.5977Z" fill="#FF5F5B"/>
<path d="M158.5 28C155.039 28 151.655 29.0264 148.778 30.9493C145.9 32.8722 143.657 35.6053 142.332 38.803C141.008 42.0007 140.661 45.5194 141.336 48.9141C142.012 52.3087 143.678 55.4269 146.126 57.8744C148.573 60.3218 151.691 61.9885 155.086 62.6637C158.481 63.339 161.999 62.9924 165.197 61.6679C168.395 60.3433 171.128 58.1003 173.051 55.2225C174.974 52.3446 176 48.9612 176 45.5C176 40.8587 174.156 36.4075 170.874 33.1256C167.592 29.8437 163.141 28 158.5 28ZM170.396 45.6207C164.121 47.6869 160.604 51.2822 158.689 57.709L158.387 57.709C156.474 51.2822 152.878 47.6917 146.605 45.6207L146.605 45.3153C152.881 43.2491 156.474 39.731 158.387 33.3043L158.692 33.3043C160.605 39.731 164.123 43.2491 170.399 45.3153L170.396 45.6207Z" fill="white"/>
<path d="M189.518 54H186.955L192.713 38H195.502L201.26 54H198.697L194.174 40.9062H194.049L189.518 54ZM189.947 47.7344H198.26V49.7656H189.947V47.7344ZM203.57 54V38H205.984V51.9219H213.234V54H203.57ZM218.402 38V54H215.988V38H218.402ZM241.029 43.2031H238.592C238.498 42.6823 238.324 42.224 238.068 41.8281C237.813 41.4323 237.501 41.0964 237.131 40.8203C236.761 40.5443 236.347 40.3359 235.889 40.1953C235.436 40.0547 234.954 39.9844 234.443 39.9844C233.521 39.9844 232.696 40.2161 231.967 40.6797C231.243 41.1432 230.67 41.8229 230.248 42.7187C229.831 43.6146 229.623 44.7083 229.623 46C229.623 47.3021 229.831 48.401 230.248 49.2969C230.67 50.1927 231.245 50.8698 231.975 51.3281C232.704 51.7865 233.524 52.0156 234.436 52.0156C234.941 52.0156 235.42 51.9479 235.873 51.8125C236.331 51.6719 236.745 51.4661 237.115 51.1953C237.485 50.9245 237.798 50.5937 238.053 50.2031C238.313 49.8073 238.493 49.3542 238.592 48.8438L241.029 48.8516C240.899 49.638 240.646 50.362 240.271 51.0234C239.902 51.6797 239.425 52.2474 238.842 52.7266C238.264 53.2005 237.602 53.5677 236.857 53.8281C236.113 54.0885 235.3 54.2187 234.42 54.2187C233.035 54.2187 231.8 53.8906 230.717 53.2344C229.633 52.5729 228.779 51.6276 228.154 50.3984C227.535 49.1693 227.225 47.7031 227.225 46C227.225 44.2917 227.537 42.8255 228.162 41.6016C228.787 40.3724 229.641 39.4297 230.725 38.7734C231.808 38.112 233.04 37.7812 234.42 37.7812C235.269 37.7812 236.061 37.9036 236.795 38.1484C237.535 38.388 238.199 38.7422 238.787 39.2109C239.376 39.6745 239.863 40.2422 240.248 40.9141C240.633 41.5807 240.894 42.3437 241.029 43.2031ZM257.816 46C257.816 47.7083 257.504 49.1771 256.879 50.4062C256.254 51.6302 255.397 52.5729 254.309 53.2344C253.225 53.8906 251.993 54.2187 250.613 54.2187C249.228 54.2187 247.991 53.8906 246.902 53.2344C245.819 52.5729 244.965 51.6276 244.34 50.3984C243.715 49.1693 243.402 47.7031 243.402 46C243.402 44.2917 243.715 42.8255 244.34 41.6016C244.965 40.3724 245.819 39.4297 246.902 38.7734C247.991 38.112 249.228 37.7812 250.613 37.7812C251.993 37.7812 253.225 38.112 254.309 38.7734C255.397 39.4297 256.254 40.3724 256.879 41.6016C257.504 42.8255 257.816 44.2917 257.816 46ZM255.426 46C255.426 44.6979 255.215 43.6016 254.793 42.7109C254.376 41.8151 253.803 41.138 253.074 40.6797C252.35 40.2161 251.53 39.9844 250.613 39.9844C249.691 39.9844 248.868 40.2161 248.145 40.6797C247.421 41.138 246.848 41.8151 246.426 42.7109C246.009 43.6016 245.801 44.6979 245.801 46C245.801 47.3021 246.009 48.401 246.426 49.2969C246.848 50.1875 247.421 50.8646 248.145 51.3281C248.868 51.7865 249.691 52.0156 250.613 52.0156C251.53 52.0156 252.35 51.7865 253.074 51.3281C253.803 50.8646 254.376 50.1875 254.793 49.2969C255.215 48.401 255.426 47.3021 255.426 46ZM263.24 38V54H260.826V38H263.24ZM279.67 38V54H277.451L269.318 42.2656H269.17V54H266.756V38H268.99L277.131 49.75H277.279V38H279.67ZM291.918 42.2031C291.835 41.4635 291.491 40.8906 290.887 40.4844C290.283 40.0729 289.522 39.8672 288.605 39.8672C287.949 39.8672 287.382 39.9714 286.902 40.1797C286.423 40.3828 286.051 40.6641 285.785 41.0234C285.525 41.3776 285.395 41.7812 285.395 42.2344C285.395 42.6146 285.483 42.9427 285.66 43.2187C285.842 43.4948 286.079 43.7266 286.371 43.9141C286.668 44.0964 286.986 44.25 287.324 44.375C287.663 44.4948 287.988 44.5937 288.301 44.6719L289.863 45.0781C290.374 45.2031 290.897 45.3724 291.434 45.5859C291.97 45.7995 292.467 46.0807 292.926 46.4297C293.384 46.7786 293.754 47.2109 294.035 47.7266C294.322 48.2422 294.465 48.8594 294.465 49.5781C294.465 50.4844 294.23 51.2891 293.762 51.9922C293.298 52.6953 292.624 53.25 291.738 53.6562C290.858 54.0625 289.793 54.2656 288.543 54.2656C287.345 54.2656 286.309 54.0755 285.434 53.6953C284.559 53.3151 283.874 52.776 283.379 52.0781C282.884 51.375 282.611 50.5417 282.559 49.5781H284.98C285.027 50.1562 285.215 50.638 285.543 51.0234C285.876 51.4036 286.301 51.6875 286.816 51.875C287.337 52.0573 287.908 52.1484 288.527 52.1484C289.21 52.1484 289.816 52.0417 290.348 51.8281C290.884 51.6094 291.306 51.3073 291.613 50.9219C291.921 50.5312 292.074 50.0755 292.074 49.5547C292.074 49.0807 291.939 48.6927 291.668 48.3906C291.402 48.0885 291.04 47.8385 290.582 47.6406C290.129 47.4427 289.616 47.2682 289.043 47.1172L287.152 46.6016C285.871 46.2526 284.855 45.7396 284.105 45.0625C283.361 44.3854 282.988 43.4896 282.988 42.375C282.988 41.4531 283.238 40.6484 283.738 39.9609C284.238 39.2734 284.915 38.7396 285.77 38.3594C286.624 37.974 287.587 37.7812 288.66 37.7812C289.743 37.7812 290.699 37.9714 291.527 38.3516C292.361 38.7318 293.017 39.2552 293.496 39.9219C293.975 40.5833 294.225 41.3437 294.246 42.2031H291.918Z" fill="white"/>
</g>
<defs>
<clipPath id="clip0_843_290">
<rect width="326" height="91" rx="10" fill="white"/>
</clipPath>
</defs>
</svg>
