<svg width="170" height="41" viewBox="0 0 170 41" fill="none" xmlns="http://www.w3.org/2000/svg">
<path d="M130.782 11.53C129.662 11.0536 128.459 10.8222 127.23 10.8086H127.175C125.809 10.8222 124.471 11.0808 123.228 11.6117C122.012 12.129 120.919 12.8504 119.977 13.7897C119.034 14.7153 118.296 15.8043 117.777 17.0158C117.245 18.2681 116.971 19.6021 116.958 20.9769V20.9905V21.0178C116.958 22.4062 117.245 23.7674 117.777 25.0334C118.296 26.2585 119.048 27.3611 119.99 28.3139C120.933 29.2668 122.039 30.0154 123.269 30.5463C124.539 31.0908 125.891 31.3767 127.285 31.3903H127.326H127.339H127.367H127.38H127.394C128.938 31.3767 130.399 31.0228 131.779 30.3694C133.077 29.7432 134.197 28.872 135.139 27.7694L132.558 25.714C131.915 26.449 131.164 27.0344 130.304 27.4563C129.375 27.9055 128.378 28.1506 127.339 28.1506C126.533 28.1506 125.755 28.0008 125.004 27.7422C124.28 27.4836 123.61 27.116 122.995 26.6396C122.394 26.1768 121.875 25.6187 121.452 24.9789C121.028 24.3392 120.701 23.6313 120.496 22.8962L120.455 22.7737H136.369L136.382 19.9424C136.382 18.7037 136.136 17.5058 135.658 16.3896C135.194 15.3006 134.538 14.3205 133.691 13.4902C132.858 12.6462 131.875 11.9929 130.782 11.53ZM120.455 19.5204L120.482 19.3979C120.66 18.6629 120.96 17.955 121.37 17.3152C121.78 16.6891 122.271 16.131 122.859 15.6682C123.446 15.2053 124.102 14.8378 124.812 14.5792C125.55 14.3205 126.315 14.1844 127.107 14.1844C128.555 14.1844 129.948 14.7289 131.014 15.6954C132.079 16.6619 132.749 17.9822 132.899 19.3979L132.913 19.5068H120.455V19.5204Z" fill="white"/>
<path d="M93.093 10.8086C87.4105 10.8086 82.7934 15.3551 82.7524 21.0042V41.0005H86.2357V28.205C87.9705 30.0291 90.361 31.2269 93.0247 31.4039C93.0521 31.4039 93.0794 31.4039 93.093 31.4039C98.8029 31.4039 103.434 26.7893 103.434 21.0994C103.434 15.6818 99.2401 11.2442 93.9126 10.8358C93.8853 10.8358 93.7214 10.8222 93.6941 10.8222C93.5028 10.8086 93.2979 10.8086 93.093 10.8086ZM99.9094 21.3989C99.9094 25.1423 96.8632 28.1778 93.1067 28.1778C89.3502 28.1778 86.304 25.1423 86.304 21.3989C86.304 21.3036 86.304 21.2219 86.304 21.1267C86.304 21.045 86.304 20.9497 86.304 20.8544C86.304 17.1111 89.3502 14.0755 93.1067 14.0755C96.8632 14.0755 99.9094 17.1111 99.9094 20.8544C99.9094 20.9497 99.9094 21.0314 99.9094 21.1267C99.9094 21.2219 99.9094 21.3036 99.9094 21.3989Z" fill="white"/>
<path d="M46.8399 27.2796V18.8673H58.0002V15.505H46.8399V7.26965H59.4072V3.73047H43.2883V30.8188H60.3907V27.2796H46.8399Z" fill="white"/>
<path d="M81.2227 11.3672H77.0974L71.5787 18.5L66.0737 11.3672H61.9484L69.4751 21.0863L61.9484 30.8191H66.0737L71.5787 23.6863L77.0974 30.8191H81.2227L73.696 21.0863L81.2227 11.3672Z" fill="white"/>
<path d="M151.218 21.0858C150.63 20.6366 149.947 20.2827 149.155 20.0241C148.376 19.7654 147.543 19.5476 146.669 19.3707C146.027 19.2618 145.398 19.1257 144.797 18.9487C144.196 18.7854 143.664 18.5812 143.199 18.3634C142.735 18.1456 142.366 17.8869 142.106 17.5875C141.847 17.3016 141.71 16.9341 141.71 16.5257C141.71 16.0765 141.833 15.6818 142.065 15.3279C142.298 14.9739 142.598 14.6881 142.967 14.4703C143.336 14.2525 143.746 14.0755 144.21 13.9666C144.675 13.8577 145.125 13.8033 145.576 13.8033C145.658 13.8033 145.754 13.8033 145.836 13.8033C147.529 13.8577 149.032 14.7289 149.947 16.0221L152.543 14.2797C151.054 12.1698 148.609 10.8086 145.836 10.8086C144.866 10.8086 143.978 10.9311 143.104 11.1897C142.229 11.4348 141.451 11.8023 140.754 12.2787C140.057 12.7551 139.497 13.3541 139.074 14.0755C138.65 14.797 138.446 15.6409 138.446 16.5802C138.446 17.5875 138.637 18.4042 139.019 19.044C139.402 19.6838 139.907 20.2146 140.536 20.6094C141.164 21.0178 141.902 21.3445 142.735 21.5895C143.568 21.8345 144.456 22.0659 145.385 22.2565C145.918 22.3654 146.437 22.4879 146.942 22.6376C147.448 22.7737 147.898 22.9643 148.281 23.2093C148.677 23.4407 148.991 23.7266 149.223 24.0669C149.456 24.4072 149.578 24.8292 149.578 25.3601C149.578 25.8909 149.456 26.3401 149.196 26.7213C148.95 27.1024 148.609 27.4155 148.185 27.6605C147.762 27.9055 147.297 28.0961 146.778 28.205C146.3 28.3139 145.836 28.3684 145.371 28.3684C143.254 28.3684 141.396 27.3611 140.262 25.8093L137.626 27.8511C139.484 30.0018 142.257 31.3767 145.344 31.3767C146.3 31.3631 147.202 31.2405 148.103 31.0364C149.046 30.8186 149.879 30.451 150.63 29.9746C151.368 29.4846 151.969 28.8584 152.42 28.0689C152.871 27.293 153.089 26.3401 153.089 25.2239C153.089 24.2439 152.925 23.4271 152.584 22.7601C152.269 22.0931 151.805 21.535 151.218 21.0858Z" fill="white"/>
<path d="M169.508 22.7601C169.166 22.0931 168.715 21.535 168.114 21.0858C167.527 20.6366 166.844 20.2827 166.052 20.0241C165.273 19.7654 164.44 19.5476 163.566 19.3707C162.923 19.2618 162.295 19.1257 161.694 18.9487C161.093 18.7854 160.56 18.5812 160.096 18.3634C159.631 18.1456 159.263 17.8869 159.003 17.5875C158.744 17.288 158.607 16.9341 158.607 16.5257C158.607 16.0765 158.73 15.6818 158.962 15.3279C159.194 14.9739 159.495 14.6881 159.864 14.4703C160.232 14.2525 160.642 14.0755 161.107 13.9666C161.571 13.8577 162.022 13.8033 162.473 13.8033C162.555 13.8033 162.65 13.8033 162.732 13.8033C164.426 13.8577 165.929 14.7289 166.844 16.0221V16.0085L169.439 14.2797L169.426 14.2661H169.439C167.95 12.1698 165.505 10.8086 162.732 10.8086H162.691C161.762 10.8086 160.874 10.9311 160 11.1897C159.126 11.4348 158.347 11.8023 157.651 12.2787C156.954 12.7551 156.394 13.3541 155.971 14.0755C155.547 14.797 155.342 15.6409 155.342 16.5802C155.342 17.5875 155.533 18.4042 155.916 19.044C156.298 19.6838 156.804 20.2146 157.432 20.6094C158.061 21.0178 158.798 21.3445 159.631 21.5895C160.478 21.8345 161.353 22.0659 162.281 22.2565C162.814 22.3654 163.333 22.4879 163.839 22.6376C164.344 22.7737 164.795 22.9643 165.177 23.1957C165.574 23.4271 165.888 23.713 166.12 24.0533C166.352 24.3936 166.475 24.8156 166.475 25.3464C166.475 25.8773 166.352 26.3265 166.093 26.7077C165.847 27.0888 165.505 27.4019 165.082 27.6469C164.658 27.8919 164.194 28.0825 163.675 28.1914C163.197 28.3003 162.732 28.3548 162.268 28.3548H162.24C160.164 28.3548 158.306 27.3475 157.173 25.7957L154.536 27.8375C156.394 29.9882 159.167 31.3631 162.254 31.3631V31.3494C163.21 31.3358 164.112 31.2269 165.013 31.0227C165.956 30.805 166.789 30.4374 167.541 29.961C168.278 29.471 168.879 28.8448 169.33 28.0553C169.781 27.2794 169.999 26.3265 169.999 25.2103C170.013 24.2575 169.849 23.4271 169.508 22.7601Z" fill="white"/>
<path d="M109.445 11.312H105.962V20.5955C105.962 20.7453 105.962 20.895 105.962 21.0447V30.8183H109.445V21.0584C109.445 17.2878 112.519 14.225 116.289 14.225V10.7539C113.68 10.7539 111.289 11.734 109.445 13.3402V11.312Z" fill="white"/>
<path d="M29.9569 3.73047H26.4736V30.8188H29.9569V3.73047Z" fill="white"/>
<path d="M14.0152 3.7168H10.4363L0 30.8187H3.40136L5.9148 24.3121H18.5367L21.0501 30.8187H24.4515L14.0152 3.7168ZM7.28081 20.7457L12.2257 7.89575L17.1707 20.7457H7.28081Z" fill="white"/>
<path d="M38.3299 11.4746H34.8466V30.8176H38.3299V11.4746Z" fill="white"/>
<path d="M36.595 0C36.513 0 36.4447 0.0680578 36.4447 0.149731C36.4447 2.94024 34.1771 5.21348 31.3905 5.21348C31.3085 5.21348 31.2402 5.28154 31.2402 5.36321C31.2402 5.44488 31.3085 5.51295 31.3905 5.51295C34.1771 5.51295 36.4447 7.78619 36.4447 10.5767C36.4447 10.6584 36.513 10.7264 36.595 10.7264C36.6769 10.7264 36.7452 10.6584 36.7452 10.5767C36.7589 7.7998 39.0265 5.52656 41.7995 5.52656C41.8814 5.52656 41.9497 5.4585 41.9497 5.37683C41.9497 5.29516 41.8814 5.22709 41.7995 5.22709C39.0128 5.22709 36.7452 2.95385 36.7452 0.16334V0.149731C36.7452 0.108894 36.7316 0.0680595 36.7043 0.040835C36.6633 0.0136106 36.636 0 36.595 0Z" fill="white"/>
</svg>
