<svg width="247" height="91" viewBox="0 0 247 91" fill="none" xmlns="http://www.w3.org/2000/svg">
<rect width="247" height="91" rx="10" fill="#FF5F5B"/>
<path d="M44.5557 38V54H42.1494V40.0625H34.6182V54H32.2119V38H44.5557ZM48.2471 54V38H53.9502C55.195 38 56.2262 38.2266 57.0439 38.6797C57.8617 39.1328 58.4736 39.7526 58.8799 40.5391C59.2861 41.3203 59.4893 42.2005 59.4893 43.1797C59.4893 44.1641 59.2835 45.0495 58.8721 45.8359C58.4658 46.6172 57.8512 47.237 57.0283 47.6953C56.2106 48.1484 55.182 48.375 53.9424 48.375H50.0205V46.3281H53.7236C54.5101 46.3281 55.1481 46.1927 55.6377 45.9219C56.1273 45.6458 56.4867 45.2708 56.7158 44.7969C56.945 44.3229 57.0596 43.7839 57.0596 43.1797C57.0596 42.5755 56.945 42.0391 56.7158 41.5703C56.4867 41.1016 56.1247 40.7344 55.6299 40.4688C55.1403 40.2031 54.4945 40.0703 53.6924 40.0703H50.6611V54H48.2471ZM76.2178 46C76.2178 47.7083 75.9053 49.1771 75.2803 50.4062C74.6553 51.6302 73.7985 52.5729 72.71 53.2344C71.6266 53.8906 70.3949 54.2187 69.0146 54.2187C67.6292 54.2187 66.3923 53.8906 65.3037 53.2344C64.2204 52.5729 63.3662 51.6276 62.7412 50.3984C62.1162 49.1693 61.8037 47.7031 61.8037 46C61.8037 44.2917 62.1162 42.8255 62.7412 41.6016C63.3662 40.3724 64.2204 39.4297 65.3037 38.7734C66.3923 38.112 67.6292 37.7812 69.0146 37.7812C70.3949 37.7812 71.6266 38.112 72.71 38.7734C73.7985 39.4297 74.6553 40.3724 75.2803 41.6016C75.9053 42.8255 76.2178 44.2917 76.2178 46ZM73.8271 46C73.8271 44.6979 73.6162 43.6016 73.1943 42.7109C72.7777 41.8151 72.2048 41.138 71.4756 40.6797C70.7516 40.2161 69.9313 39.9844 69.0146 39.9844C68.0928 39.9844 67.2699 40.2161 66.5459 40.6797C65.8219 41.138 65.249 41.8151 64.8271 42.7109C64.4105 43.6016 64.2021 44.6979 64.2021 46C64.2021 47.3021 64.4105 48.401 64.8271 49.2969C65.249 50.1875 65.8219 50.8646 66.5459 51.3281C67.2699 51.7865 68.0928 52.0156 69.0146 52.0156C69.9313 52.0156 70.7516 51.7865 71.4756 51.3281C72.2048 50.8646 72.7777 50.1875 73.1943 49.2969C73.6162 48.401 73.8271 47.3021 73.8271 46ZM79.2275 38H82.1572L87.251 50.4375H87.4385L92.5322 38H95.4619V54H93.165V42.4219H93.0166L88.2979 53.9766H86.3916L81.6729 42.4141H81.5244V54H79.2275V38ZM112.87 46C112.87 47.7083 112.558 49.1771 111.933 50.4062C111.308 51.6302 110.451 52.5729 109.362 53.2344C108.279 53.8906 107.047 54.2187 105.667 54.2187C104.282 54.2187 103.045 53.8906 101.956 53.2344C100.873 52.5729 100.019 51.6276 99.3936 50.3984C98.7686 49.1693 98.4561 47.7031 98.4561 46C98.4561 44.2917 98.7686 42.8255 99.3936 41.6016C100.019 40.3724 100.873 39.4297 101.956 38.7734C103.045 38.112 104.282 37.7812 105.667 37.7812C107.047 37.7812 108.279 38.112 109.362 38.7734C110.451 39.4297 111.308 40.3724 111.933 41.6016C112.558 42.8255 112.87 44.2917 112.87 46ZM110.479 46C110.479 44.6979 110.269 43.6016 109.847 42.7109C109.43 41.8151 108.857 41.138 108.128 40.6797C107.404 40.2161 106.584 39.9844 105.667 39.9844C104.745 39.9844 103.922 40.2161 103.198 40.6797C102.474 41.138 101.901 41.8151 101.479 42.7109C101.063 43.6016 100.854 44.6979 100.854 46C100.854 47.3021 101.063 48.401 101.479 49.2969C101.901 50.1875 102.474 50.8646 103.198 51.3281C103.922 51.7865 104.745 52.0156 105.667 52.0156C106.584 52.0156 107.404 51.7865 108.128 51.3281C108.857 50.8646 109.43 50.1875 109.847 49.2969C110.269 48.401 110.479 47.3021 110.479 46ZM125.372 54L119.997 46.8281H118.294V54H115.88V38H118.294V44.7578H119.083L125.13 38H128.075L121.677 45.1641L128.317 54H125.372ZM143.657 46C143.657 47.7083 143.345 49.1771 142.72 50.4062C142.095 51.6302 141.238 52.5729 140.149 53.2344C139.066 53.8906 137.834 54.2187 136.454 54.2187C135.069 54.2187 133.832 53.8906 132.743 53.2344C131.66 52.5729 130.806 51.6276 130.181 50.3984C129.556 49.1693 129.243 47.7031 129.243 46C129.243 44.2917 129.556 42.8255 130.181 41.6016C130.806 40.3724 131.66 39.4297 132.743 38.7734C133.832 38.112 135.069 37.7812 136.454 37.7812C137.834 37.7812 139.066 38.112 140.149 38.7734C141.238 39.4297 142.095 40.3724 142.72 41.6016C143.345 42.8255 143.657 44.2917 143.657 46ZM141.267 46C141.267 44.6979 141.056 43.6016 140.634 42.7109C140.217 41.8151 139.644 41.138 138.915 40.6797C138.191 40.2161 137.371 39.9844 136.454 39.9844C135.532 39.9844 134.709 40.2161 133.985 40.6797C133.261 41.138 132.688 41.8151 132.267 42.7109C131.85 43.6016 131.642 44.6979 131.642 46C131.642 47.3021 131.85 48.401 132.267 49.2969C132.688 50.1875 133.261 50.8646 133.985 51.3281C134.709 51.7865 135.532 52.0156 136.454 52.0156C137.371 52.0156 138.191 51.7865 138.915 51.3281C139.644 50.8646 140.217 50.1875 140.634 49.2969C141.056 48.401 141.267 47.3021 141.267 46ZM145.456 57.8672V51.9531H146.511C146.87 51.651 147.206 51.2214 147.519 50.6641C147.831 50.1068 148.097 49.3542 148.315 48.4062C148.534 47.4583 148.685 46.2422 148.769 44.7578L149.144 38H159.011V51.9531H160.823V57.8438H158.511V54H147.769V57.8672H145.456ZM149.354 51.9531H156.698V40.0781H151.331L151.081 44.7578C151.013 45.888 150.901 46.9036 150.745 47.8047C150.594 48.7057 150.399 49.5026 150.159 50.1953C149.925 50.8828 149.657 51.4687 149.354 51.9531Z" fill="white"/>
<rect x="178" y="28" width="36" height="36" rx="18" fill="white"/>
<path d="M203.707 46.7071C204.098 46.3166 204.098 45.6834 203.707 45.2929L197.343 38.9289C196.953 38.5384 196.319 38.5384 195.929 38.9289C195.538 39.3195 195.538 39.9526 195.929 40.3431L201.586 46L195.929 51.6569C195.538 52.0474 195.538 52.6805 195.929 53.0711C196.319 53.4616 196.953 53.4616 197.343 53.0711L203.707 46.7071ZM189 47H203V45H189V47Z" fill="#FE2722"/>
</svg>
