<svg width="30" height="31" viewBox="0 0 30 31" fill="none" xmlns="http://www.w3.org/2000/svg">
<rect x="1" y="1.5" width="28" height="28" rx="14" stroke="white" stroke-width="2"/>
<path d="M14.0602 18.1923C13.8195 18.1923 13.609 18.1125 13.4286 17.953C13.2632 17.7934 13.1805 17.5209 13.1805 17.1353C13.1805 16.5902 13.3308 16.1116 13.6316 15.6994C13.9474 15.2873 14.4135 14.802 15.0301 14.2436C15.5714 13.765 15.9774 13.3462 16.2481 12.9872C16.5338 12.6149 16.6767 12.2094 16.6767 11.7707C16.6767 11.2654 16.4887 10.8599 16.1128 10.5541C15.7368 10.235 15.2331 10.0755 14.6015 10.0755C13.8647 10.0755 13.3083 10.2816 12.9323 10.6937C12.5714 11.0926 12.3534 11.5712 12.2782 12.1296C12.218 12.4753 12.0827 12.7346 11.8722 12.9074C11.6767 13.0802 11.4135 13.1667 11.0827 13.1667C10.7218 13.1667 10.4511 13.067 10.2707 12.8675C10.0902 12.6548 10 12.3689 10 12.01C10 11.4649 10.1805 10.9198 10.5414 10.3746C10.9173 9.82953 11.4586 9.38414 12.1654 9.03846C12.8722 8.67949 13.7143 8.5 14.6917 8.5C15.9098 8.5 16.9323 8.78585 17.7594 9.35755C18.5865 9.91595 19 10.7004 19 11.7108C19 12.2028 18.8947 12.6548 18.6842 13.067C18.4737 13.4658 18.218 13.8181 17.9173 14.1239C17.6316 14.4164 17.2406 14.7754 16.7444 15.2009C16.188 15.6662 15.7669 16.0584 15.4812 16.3775C15.2105 16.6833 15.0376 17.029 14.9624 17.4145C14.9173 17.6671 14.812 17.8599 14.6466 17.9929C14.4962 18.1258 14.3008 18.1923 14.0602 18.1923ZM14.3534 22.5C13.8872 22.5 13.5263 22.387 13.2707 22.161C13.0301 21.9349 12.9098 21.6092 12.9098 21.1838C12.9098 20.7716 13.0301 20.4525 13.2707 20.2265C13.5263 20.0005 13.8872 19.8875 14.3534 19.8875C14.8195 19.8875 15.1729 20.0005 15.4135 20.2265C15.6692 20.4525 15.797 20.7716 15.797 21.1838C15.797 21.6092 15.6692 21.9349 15.4135 22.161C15.1729 22.387 14.8195 22.5 14.3534 22.5Z" fill="white"/>
</svg>
