<svg width="202" height="91" viewBox="0 0 202 91" fill="none" xmlns="http://www.w3.org/2000/svg">
<rect width="202" height="91" rx="10" fill="white"/>
<path d="M21.1186 34V23.8182H24.7479C25.54 23.8182 26.1963 23.9624 26.7166 24.2507C27.237 24.5391 27.6264 24.9335 27.8849 25.4339C28.1435 25.9311 28.2727 26.4912 28.2727 27.1143C28.2727 27.7408 28.1418 28.3042 27.88 28.8047C27.6214 29.3018 27.2304 29.6963 26.7067 29.9879C26.1863 30.2763 25.5317 30.4205 24.7429 30.4205H22.2472V29.1179H24.6037C25.1042 29.1179 25.5102 29.0317 25.8217 28.8594C26.1333 28.6837 26.362 28.4451 26.5078 28.1435C26.6536 27.8419 26.7266 27.4988 26.7266 27.1143C26.7266 26.7299 26.6536 26.3885 26.5078 26.0902C26.362 25.7919 26.1316 25.5582 25.8168 25.3892C25.5052 25.2202 25.0942 25.1357 24.5838 25.1357H22.6548V34H21.1186ZM33.1499 34.1541C32.3975 34.1541 31.7495 33.9934 31.206 33.6719C30.6657 33.3471 30.2481 32.8913 29.9531 32.3047C29.6615 31.7147 29.5156 31.0237 29.5156 30.2315C29.5156 29.4493 29.6615 28.7599 29.9531 28.1634C30.2481 27.5668 30.6591 27.1011 31.1861 26.7663C31.7164 26.4316 32.3362 26.2642 33.0455 26.2642C33.4763 26.2642 33.8939 26.3355 34.2983 26.478C34.7027 26.6205 35.0656 26.8442 35.3871 27.1491C35.7086 27.4541 35.9621 27.8501 36.1477 28.3374C36.3333 28.8213 36.4261 29.4096 36.4261 30.1023V30.6293H30.3558V29.5156H34.9695C34.9695 29.1245 34.8899 28.7782 34.7308 28.4766C34.5717 28.1716 34.348 27.9313 34.0597 27.7557C33.7746 27.58 33.4399 27.4922 33.0554 27.4922C32.6378 27.4922 32.2732 27.5949 31.9616 27.8004C31.6534 28.0026 31.4148 28.2678 31.2457 28.5959C31.08 28.9207 30.9972 29.2737 30.9972 29.6548V30.5249C30.9972 31.0353 31.0866 31.4695 31.2656 31.8274C31.4479 32.1854 31.7015 32.4588 32.0263 32.6477C32.3511 32.8333 32.7306 32.9261 33.1648 32.9261C33.4465 32.9261 33.7034 32.8864 33.9354 32.8068C34.1674 32.724 34.3679 32.6013 34.5369 32.4389C34.706 32.2765 34.8352 32.076 34.9247 31.8374L36.3317 32.0909C36.219 32.5052 36.0168 32.8681 35.7251 33.1797C35.4368 33.4879 35.0739 33.7282 34.6364 33.9006C34.2022 34.0696 33.7067 34.1541 33.1499 34.1541ZM37.623 31.9815H39.1444C39.1642 32.2931 39.3051 32.5334 39.5669 32.7024C39.8321 32.8714 40.1751 32.956 40.5961 32.956C41.0236 32.956 41.3882 32.8648 41.6898 32.6825C41.9914 32.4969 42.1422 32.2102 42.1422 31.8224C42.1422 31.5904 42.0842 31.3883 41.9682 31.2159C41.8555 31.0402 41.6948 30.9044 41.486 30.8082C41.2805 30.7121 41.0369 30.6641 40.7551 30.6641H39.5123V29.4957H40.7551C41.1761 29.4957 41.4909 29.3996 41.6998 29.2074C41.9086 29.0152 42.013 28.7749 42.013 28.4865C42.013 28.175 41.9003 27.9247 41.6749 27.7358C41.4528 27.5436 41.1429 27.4474 40.7452 27.4474C40.3408 27.4474 40.0044 27.5386 39.736 27.7209C39.4675 27.8999 39.3266 28.1319 39.3134 28.4169H37.812C37.8219 27.9893 37.9512 27.6148 38.1998 27.2933C38.4516 26.9685 38.7897 26.7166 39.214 26.5376C39.6415 26.3554 40.1271 26.2642 40.6706 26.2642C41.2374 26.2642 41.7279 26.3554 42.1422 26.5376C42.5565 26.7199 42.8764 26.9718 43.1017 27.2933C43.3304 27.6148 43.4448 27.9844 43.4448 28.402C43.4448 28.8229 43.3188 29.1676 43.0669 29.4361C42.8184 29.7012 42.4935 29.8918 42.0925 30.0078V30.0874C42.3875 30.1072 42.6493 30.1967 42.878 30.3558C43.1067 30.5149 43.2857 30.7254 43.415 30.9872C43.5442 31.2491 43.6088 31.5457 43.6088 31.8771C43.6088 32.3445 43.4796 32.7488 43.2211 33.0902C42.9659 33.4316 42.6112 33.6951 42.1571 33.8807C41.7064 34.063 41.191 34.1541 40.611 34.1541C40.0475 34.1541 39.5421 34.0663 39.0946 33.8906C38.6505 33.7116 38.2975 33.4598 38.0357 33.1349C37.7772 32.8101 37.6396 32.4257 37.623 31.9815ZM46.0835 36.8636C45.8614 36.8636 45.6592 36.8454 45.4769 36.8089C45.2946 36.7758 45.1587 36.7393 45.0692 36.6996L45.4272 35.4815C45.699 35.5545 45.9409 35.5859 46.1531 35.576C46.3652 35.5661 46.5524 35.4865 46.7148 35.3374C46.8806 35.1882 47.0264 34.9446 47.1523 34.6065L47.3363 34.0994L44.5423 26.3636H46.1332L48.0671 32.2898H48.1467L50.0806 26.3636H51.6765L48.5295 35.0192C48.3836 35.4169 48.198 35.7533 47.9727 36.0284C47.7473 36.3068 47.4788 36.5156 47.1673 36.6548C46.8557 36.794 46.4944 36.8636 46.0835 36.8636ZM51.843 34L51.8381 32.7124H52.1115C52.3236 32.7124 52.5009 32.6676 52.6435 32.5781C52.7893 32.4853 52.9086 32.3295 53.0014 32.1108C53.0942 31.892 53.1655 31.5904 53.2152 31.206C53.2649 30.8182 53.3014 30.331 53.3246 29.7443L53.4588 26.3636H58.7884V34H57.3317V27.6463H54.8359L54.7166 30.2415C54.6868 30.8712 54.6222 31.4214 54.5227 31.892C54.4266 32.3627 54.2857 32.7554 54.1001 33.0703C53.9145 33.3819 53.6759 33.6155 53.3842 33.7713C53.0926 33.9238 52.7379 34 52.3203 34H51.843ZM61.8894 28.9886H64.1067C65.0414 28.9886 65.7606 29.2206 66.2644 29.6847C66.7682 30.1487 67.0201 30.7469 67.0201 31.4794C67.0201 31.9567 66.9074 32.3859 66.682 32.767C66.4566 33.1482 66.1268 33.4498 65.6926 33.6719C65.2585 33.8906 64.7298 34 64.1067 34H60.7708V26.3636H62.2275V32.7173H64.1067C64.5343 32.7173 64.8856 32.6063 65.1607 32.3842C65.4358 32.1589 65.5733 31.8722 65.5733 31.5241C65.5733 31.1562 65.4358 30.8563 65.1607 30.6243C64.8856 30.389 64.5343 30.2713 64.1067 30.2713H61.8894V28.9886ZM67.4663 27.6463V26.3636H73.9094V27.6463H71.4187V34H69.967V27.6463H67.4663ZM77.3485 34.169C76.8646 34.169 76.4271 34.0795 76.036 33.9006C75.6449 33.7183 75.335 33.4548 75.1064 33.1101C74.881 32.7654 74.7683 32.3428 74.7683 31.8423C74.7683 31.4115 74.8511 31.0568 75.0169 30.7784C75.1826 30.5 75.4063 30.2796 75.688 30.1172C75.9698 29.9548 76.2846 29.8321 76.6326 29.7493C76.9806 29.6664 77.3353 29.6035 77.6966 29.5604C78.1539 29.5073 78.5252 29.4643 78.8102 29.4311C79.0952 29.3946 79.3024 29.3366 79.4316 29.2571C79.5609 29.1776 79.6255 29.0483 79.6255 28.8693V28.8345C79.6255 28.4003 79.5029 28.0639 79.2576 27.8253C79.0157 27.5866 78.6544 27.4673 78.1738 27.4673C77.6734 27.4673 77.2789 27.5784 76.9906 27.8004C76.7056 28.0192 76.5083 28.2628 76.399 28.5312L75.002 28.2131C75.1677 27.7491 75.4096 27.3745 75.7278 27.0895C76.0493 26.8011 76.4189 26.5923 76.8365 26.4631C77.2541 26.3305 77.6932 26.2642 78.1539 26.2642C78.4589 26.2642 78.782 26.3007 79.1234 26.3736C79.4681 26.4432 79.7896 26.5724 80.0879 26.7614C80.3895 26.9503 80.6364 27.2204 80.8287 27.5717C81.0209 27.9197 81.117 28.3722 81.117 28.929V34H79.6653V32.956H79.6056C79.5095 33.1482 79.3654 33.3371 79.1731 33.5227C78.9809 33.7083 78.734 33.8625 78.4324 33.9851C78.1307 34.1077 77.7695 34.169 77.3485 34.169ZM77.6717 32.9759C78.0827 32.9759 78.434 32.8946 78.7257 32.7322C79.0207 32.5698 79.2444 32.3577 79.3968 32.0959C79.5526 31.8307 79.6305 31.5473 79.6305 31.2457V30.2614C79.5775 30.3144 79.4747 30.3641 79.3223 30.4105C79.1731 30.4536 79.0024 30.4917 78.8102 30.5249C78.618 30.5547 78.4307 30.5829 78.2484 30.6094C78.0661 30.6326 77.9136 30.6525 77.791 30.669C77.5027 30.7055 77.2392 30.7668 77.0005 30.853C76.7652 30.9392 76.5763 31.0634 76.4338 31.2259C76.2946 31.3849 76.225 31.5971 76.225 31.8622C76.225 32.2301 76.3609 32.5085 76.6326 32.6974C76.9044 32.883 77.2508 32.9759 77.6717 32.9759ZM82.1499 27.6463V26.3636H88.593V27.6463H86.1023V34H84.6506V27.6463H82.1499ZM91.2839 28.9886H93.5012C94.4359 28.9886 95.1551 29.2206 95.6589 29.6847C96.1627 30.1487 96.4146 30.7469 96.4146 31.4794C96.4146 31.9567 96.3019 32.3859 96.0765 32.767C95.8511 33.1482 95.5214 33.4498 95.0872 33.6719C94.653 33.8906 94.1243 34 93.5012 34H90.1653V26.3636H91.622V32.7173H93.5012C93.9288 32.7173 94.2801 32.6063 94.5552 32.3842C94.8303 32.1589 94.9679 31.8722 94.9679 31.5241C94.9679 31.1562 94.8303 30.8563 94.5552 30.6243C94.2801 30.389 93.9288 30.2713 93.5012 30.2713H91.2839V28.9886ZM97.4984 34V26.3636H98.9849V34H97.4984ZM107.901 34.1541C107.186 34.1541 106.561 33.9901 106.027 33.6619C105.494 33.3338 105.079 32.8748 104.784 32.2848C104.489 31.6948 104.342 31.0054 104.342 30.2166C104.342 29.4245 104.489 28.7318 104.784 28.1385C105.079 27.5452 105.494 27.0845 106.027 26.7564C106.561 26.4283 107.186 26.2642 107.901 26.2642C108.617 26.2642 109.242 26.4283 109.776 26.7564C110.309 27.0845 110.724 27.5452 111.019 28.1385C111.314 28.7318 111.461 29.4245 111.461 30.2166C111.461 31.0054 111.314 31.6948 111.019 32.2848C110.724 32.8748 110.309 33.3338 109.776 33.6619C109.242 33.9901 108.617 34.1541 107.901 34.1541ZM107.906 32.9062C108.37 32.9062 108.755 32.7836 109.06 32.5384C109.365 32.2931 109.59 31.9666 109.736 31.5589C109.885 31.1513 109.96 30.7022 109.96 30.2116C109.96 29.7244 109.885 29.277 109.736 28.8693C109.59 28.4583 109.365 28.1286 109.06 27.88C108.755 27.6314 108.37 27.5071 107.906 27.5071C107.439 27.5071 107.051 27.6314 106.743 27.88C106.438 28.1286 106.211 28.4583 106.062 28.8693C105.916 29.277 105.843 29.7244 105.843 30.2116C105.843 30.7022 105.916 31.1513 106.062 31.5589C106.211 31.9666 106.438 32.2931 106.743 32.5384C107.051 32.7836 107.439 32.9062 107.906 32.9062ZM119.012 23.5199L119.628 24.4595C119.4 24.6683 119.139 24.8175 118.848 24.907C118.559 24.9931 118.226 25.0478 117.848 25.071C117.471 25.0909 117.038 25.1091 116.551 25.1257C116.001 25.1423 115.548 25.2616 115.194 25.4837C114.839 25.7024 114.565 26.0272 114.373 26.4581C114.184 26.8857 114.062 27.4226 114.005 28.0689H114.1C114.348 27.5949 114.693 27.2403 115.134 27.005C115.578 26.7696 116.077 26.652 116.63 26.652C117.247 26.652 117.795 26.7928 118.276 27.0746C118.757 27.3563 119.134 27.7689 119.409 28.3125C119.688 28.8527 119.827 29.514 119.827 30.2962C119.827 31.0883 119.681 31.7727 119.39 32.3494C119.101 32.9261 118.694 33.3719 118.167 33.6868C117.643 33.9983 117.025 34.1541 116.312 34.1541C115.6 34.1541 114.978 33.9934 114.448 33.6719C113.921 33.3471 113.511 32.8665 113.22 32.2301C112.931 31.5937 112.787 30.8082 112.787 29.8736V29.1179C112.787 27.3712 113.099 26.0571 113.722 25.1754C114.345 24.2938 115.276 23.8414 116.516 23.8182C116.917 23.8082 117.275 23.8066 117.59 23.8132C117.905 23.8165 118.18 23.8016 118.415 23.7685C118.654 23.732 118.853 23.6491 119.012 23.5199ZM116.317 32.9062C116.731 32.9062 117.088 32.8018 117.386 32.593C117.688 32.3809 117.92 32.081 118.082 31.6932C118.244 31.3054 118.326 30.848 118.326 30.321C118.326 29.804 118.244 29.3648 118.082 29.0036C117.92 28.6423 117.688 28.3672 117.386 28.1783C117.084 27.986 116.723 27.8899 116.302 27.8899C115.991 27.8899 115.712 27.9446 115.467 28.054C115.222 28.16 115.011 28.3175 114.836 28.5263C114.663 28.7351 114.529 28.9903 114.433 29.2919C114.34 29.5902 114.29 29.9332 114.284 30.321C114.284 31.1098 114.464 31.7379 114.826 32.2053C115.19 32.6726 115.687 32.9062 116.317 32.9062ZM126.663 29.5405V30.8281H122.527V29.5405H126.663ZM122.944 26.3636V34H121.488V26.3636H122.944ZM127.702 26.3636V34H126.25V26.3636H127.702ZM132.907 34.1541C132.191 34.1541 131.567 33.9901 131.033 33.6619C130.499 33.3338 130.085 32.8748 129.79 32.2848C129.495 31.6948 129.348 31.0054 129.348 30.2166C129.348 29.4245 129.495 28.7318 129.79 28.1385C130.085 27.5452 130.499 27.0845 131.033 26.7564C131.567 26.4283 132.191 26.2642 132.907 26.2642C133.623 26.2642 134.248 26.4283 134.782 26.7564C135.315 27.0845 135.73 27.5452 136.025 28.1385C136.319 28.7318 136.467 29.4245 136.467 30.2166C136.467 31.0054 136.319 31.6948 136.025 32.2848C135.73 32.8748 135.315 33.3338 134.782 33.6619C134.248 33.9901 133.623 34.1541 132.907 34.1541ZM132.912 32.9062C133.376 32.9062 133.761 32.7836 134.066 32.5384C134.371 32.2931 134.596 31.9666 134.742 31.5589C134.891 31.1513 134.966 30.7022 134.966 30.2116C134.966 29.7244 134.891 29.277 134.742 28.8693C134.596 28.4583 134.371 28.1286 134.066 27.88C133.761 27.6314 133.376 27.5071 132.912 27.5071C132.445 27.5071 132.057 27.6314 131.749 27.88C131.444 28.1286 131.217 28.4583 131.068 28.8693C130.922 29.277 130.849 29.7244 130.849 30.2116C130.849 30.7022 130.922 31.1513 131.068 31.5589C131.217 31.9666 131.444 32.2931 131.749 32.5384C132.057 32.7836 132.445 32.9062 132.912 32.9062ZM138.126 34V26.3636H141.293C142.155 26.3636 142.838 26.5476 143.341 26.9155C143.845 27.2801 144.097 27.7756 144.097 28.402C144.097 28.8494 143.955 29.2041 143.67 29.4659C143.385 29.7277 143.007 29.9034 142.536 29.9929C142.877 30.0327 143.191 30.1354 143.476 30.3011C143.761 30.4635 143.989 30.6823 144.162 30.9574C144.337 31.2325 144.425 31.5606 144.425 31.9418C144.425 32.3461 144.321 32.7041 144.112 33.0156C143.903 33.3239 143.6 33.5658 143.202 33.7415C142.808 33.9138 142.332 34 141.775 34H138.126ZM139.523 32.7571H141.775C142.143 32.7571 142.432 32.6693 142.64 32.4936C142.849 32.3179 142.954 32.0793 142.954 31.7777C142.954 31.4231 142.849 31.1446 142.64 30.9425C142.432 30.737 142.143 30.6342 141.775 30.6342H139.523V32.7571ZM139.523 29.5455H141.308C141.586 29.5455 141.825 29.5057 142.024 29.4261C142.226 29.3466 142.38 29.2339 142.486 29.0881C142.596 28.9389 142.65 28.7633 142.65 28.5611C142.65 28.2661 142.529 28.0357 142.287 27.87C142.046 27.7043 141.714 27.6214 141.293 27.6214H139.523V29.5455ZM145.454 34L145.449 32.7124H145.723C145.935 32.7124 146.112 32.6676 146.255 32.5781C146.401 32.4853 146.52 32.3295 146.613 32.1108C146.706 31.892 146.777 31.5904 146.827 31.206C146.876 30.8182 146.913 30.331 146.936 29.7443L147.07 26.3636H152.4V34H150.943V27.6463H148.447L148.328 30.2415C148.298 30.8712 148.233 31.4214 148.134 31.892C148.038 32.3627 147.897 32.7554 147.711 33.0703C147.526 33.3819 147.287 33.6155 146.996 33.7713C146.704 33.9238 146.349 34 145.932 34H145.454ZM158.936 34V27.6314H157.107C156.672 27.6314 156.334 27.7325 156.092 27.9347C155.85 28.1368 155.729 28.402 155.729 28.7301C155.729 29.0549 155.84 29.3168 156.062 29.5156C156.288 29.7112 156.603 29.8089 157.007 29.8089H159.369V31.0121H157.007C156.444 31.0121 155.956 30.9193 155.545 30.7337C155.138 30.5447 154.823 30.2779 154.601 29.9332C154.382 29.5885 154.273 29.1809 154.273 28.7102C154.273 28.2296 154.385 27.8153 154.611 27.4673C154.839 27.116 155.166 26.8442 155.59 26.652C156.018 26.4598 156.523 26.3636 157.107 26.3636H160.333V34H158.936ZM153.925 34L156.077 30.142H157.599L155.446 34H153.925ZM165.603 34.1541C164.851 34.1541 164.203 33.9934 163.659 33.6719C163.119 33.3471 162.701 32.8913 162.406 32.3047C162.115 31.7147 161.969 31.0237 161.969 30.2315C161.969 29.4493 162.115 28.7599 162.406 28.1634C162.701 27.5668 163.112 27.1011 163.639 26.7663C164.17 26.4316 164.789 26.2642 165.499 26.2642C165.929 26.2642 166.347 26.3355 166.751 26.478C167.156 26.6205 167.519 26.8442 167.84 27.1491C168.162 27.4541 168.415 27.8501 168.601 28.3374C168.786 28.8213 168.879 29.4096 168.879 30.1023V30.6293H162.809V29.5156H167.423C167.423 29.1245 167.343 28.7782 167.184 28.4766C167.025 28.1716 166.801 27.9313 166.513 27.7557C166.228 27.58 165.893 27.4922 165.509 27.4922C165.091 27.4922 164.726 27.5949 164.415 27.8004C164.107 28.0026 163.868 28.2678 163.699 28.5959C163.533 28.9207 163.45 29.2737 163.45 29.6548V30.5249C163.45 31.0353 163.54 31.4695 163.719 31.8274C163.901 32.1854 164.155 32.4588 164.479 32.6477C164.804 32.8333 165.184 32.9261 165.618 32.9261C165.9 32.9261 166.156 32.8864 166.388 32.8068C166.621 32.724 166.821 32.6013 166.99 32.4389C167.159 32.2765 167.288 32.076 167.378 31.8374L168.785 32.0909C168.672 32.5052 168.47 32.8681 168.178 33.1797C167.89 33.4879 167.527 33.7282 167.089 33.9006C166.655 34.0696 166.16 34.1541 165.603 34.1541ZM174.814 32.1605L177.28 26.3636H178.563L175.366 34H174.262L171.13 26.3636H172.398L174.814 32.1605ZM171.985 26.3636V34H170.529V26.3636H171.985ZM177.683 34V26.3636H179.129V34H177.683ZM24.2905 51.1541C23.5381 51.1541 22.8902 50.9934 22.3466 50.6719C21.8063 50.3471 21.3887 49.8913 21.0938 49.3047C20.8021 48.7147 20.6562 48.0237 20.6562 47.2315C20.6562 46.4493 20.8021 45.7599 21.0938 45.1634C21.3887 44.5668 21.7997 44.1011 22.3267 43.7663C22.857 43.4316 23.4768 43.2642 24.1861 43.2642C24.617 43.2642 25.0346 43.3355 25.4389 43.478C25.8433 43.6205 26.2062 43.8442 26.5277 44.1491C26.8492 44.4541 27.1027 44.8501 27.2884 45.3374C27.474 45.8213 27.5668 46.4096 27.5668 47.1023V47.6293H21.4964V46.5156H26.1101C26.1101 46.1245 26.0305 45.7782 25.8714 45.4766C25.7124 45.1716 25.4886 44.9313 25.2003 44.7557C24.9152 44.58 24.5805 44.4922 24.196 44.4922C23.7784 44.4922 23.4138 44.5949 23.1023 44.8004C22.794 45.0026 22.5554 45.2678 22.3864 45.5959C22.2206 45.9207 22.1378 46.2737 22.1378 46.6548V47.5249C22.1378 48.0353 22.2273 48.4695 22.4062 48.8274C22.5885 49.1854 22.8421 49.4588 23.1669 49.6477C23.4917 49.8333 23.8712 49.9261 24.3054 49.9261C24.5871 49.9261 24.844 49.8864 25.076 49.8068C25.308 49.724 25.5085 49.6013 25.6776 49.4389C25.8466 49.2765 25.9759 49.076 26.0653 48.8374L27.4723 49.0909C27.3596 49.5052 27.1574 49.8681 26.8658 50.1797C26.5774 50.4879 26.2145 50.7282 25.777 50.9006C25.3428 51.0696 24.8473 51.1541 24.2905 51.1541ZM28.5511 51L31.5092 47.0923L28.5859 43.3636H30.3161L32.6776 46.5355H33.2095V43.3636H34.696V46.5355H35.2131L37.5746 43.3636H39.3047L36.3963 47.0923L39.3395 51H37.5746L35.1932 47.8182H34.696V51H33.2095V47.8182H32.7124L30.3161 51H28.5511ZM43.8413 51.1541C43.0889 51.1541 42.4409 50.9934 41.8974 50.6719C41.3571 50.3471 40.9395 49.8913 40.6445 49.3047C40.3529 48.7147 40.207 48.0237 40.207 47.2315C40.207 46.4493 40.3529 45.7599 40.6445 45.1634C40.9395 44.5668 41.3505 44.1011 41.8775 43.7663C42.4078 43.4316 43.0276 43.2642 43.7369 43.2642C44.1677 43.2642 44.5853 43.3355 44.9897 43.478C45.3941 43.6205 45.757 43.8442 46.0785 44.1491C46.4 44.4541 46.6535 44.8501 46.8391 45.3374C47.0247 45.8213 47.1175 46.4096 47.1175 47.1023V47.6293H41.0472V46.5156H45.6609C45.6609 46.1245 45.5813 45.7782 45.4222 45.4766C45.2631 45.1716 45.0394 44.9313 44.7511 44.7557C44.466 44.58 44.1313 44.4922 43.7468 44.4922C43.3292 44.4922 42.9646 44.5949 42.6531 44.8004C42.3448 45.0026 42.1062 45.2678 41.9371 45.5959C41.7714 45.9207 41.6886 46.2737 41.6886 46.6548V47.5249C41.6886 48.0353 41.7781 48.4695 41.957 48.8274C42.1393 49.1854 42.3929 49.4588 42.7177 49.6477C43.0425 49.8333 43.422 49.9261 43.8562 49.9261C44.1379 49.9261 44.3948 49.8864 44.6268 49.8068C44.8588 49.724 45.0593 49.6013 45.2283 49.4389C45.3974 49.2765 45.5266 49.076 45.6161 48.8374L47.0231 49.0909C46.9104 49.5052 46.7082 49.8681 46.4165 50.1797C46.1282 50.4879 45.7653 50.7282 45.3278 50.9006C44.8936 51.0696 44.3981 51.1541 43.8413 51.1541ZM48.0211 53.2024V49.7124H48.6426C48.8017 49.5665 48.9359 49.3925 49.0453 49.1903C49.158 48.9882 49.2524 48.7479 49.3287 48.4695C49.4082 48.1911 49.4745 47.8662 49.5275 47.495C49.5806 47.1205 49.627 46.6929 49.6667 46.2124L49.9054 43.3636H55.0957V49.7124H56.269V53.2024H54.8173V51H49.4927V53.2024H48.0211ZM50.2335 49.7124H53.644V44.6364H51.2377L51.0787 46.2124C51.0024 47.0144 50.9063 47.7105 50.7903 48.3004C50.6743 48.8871 50.4887 49.3577 50.2335 49.7124ZM62.8974 46.5405V47.8281H58.761V46.5405H62.8974ZM59.1786 43.3636V51H57.7219V43.3636H59.1786ZM63.9364 43.3636V51H62.4847V43.3636H63.9364ZM69.2163 51.1541C68.4639 51.1541 67.8159 50.9934 67.2724 50.6719C66.7321 50.3471 66.3145 49.8913 66.0195 49.3047C65.7279 48.7147 65.582 48.0237 65.582 47.2315C65.582 46.4493 65.7279 45.7599 66.0195 45.1634C66.3145 44.5668 66.7255 44.1011 67.2525 43.7663C67.7828 43.4316 68.4026 43.2642 69.1119 43.2642C69.5427 43.2642 69.9603 43.3355 70.3647 43.478C70.7691 43.6205 71.132 43.8442 71.4535 44.1491C71.775 44.4541 72.0285 44.8501 72.2141 45.3374C72.3997 45.8213 72.4925 46.4096 72.4925 47.1023V47.6293H66.4222V46.5156H71.0359C71.0359 46.1245 70.9563 45.7782 70.7972 45.4766C70.6381 45.1716 70.4144 44.9313 70.1261 44.7557C69.841 44.58 69.5063 44.4922 69.1218 44.4922C68.7042 44.4922 68.3396 44.5949 68.0281 44.8004C67.7198 45.0026 67.4812 45.2678 67.3121 45.5959C67.1464 45.9207 67.0636 46.2737 67.0636 46.6548V47.5249C67.0636 48.0353 67.1531 48.4695 67.332 48.8274C67.5143 49.1854 67.7679 49.4588 68.0927 49.6477C68.4175 49.8333 68.797 49.9261 69.2312 49.9261C69.5129 49.9261 69.7698 49.8864 70.0018 49.8068C70.2338 49.724 70.4343 49.6013 70.6033 49.4389C70.7724 49.2765 70.9016 49.076 70.9911 48.8374L72.3981 49.0909C72.2854 49.5052 72.0832 49.8681 71.7915 50.1797C71.5032 50.4879 71.1403 50.7282 70.7028 50.9006C70.2686 51.0696 69.7731 51.1541 69.2163 51.1541ZM74.1419 51V43.3636H77.3088C78.1705 43.3636 78.8533 43.5476 79.3571 43.9155C79.8609 44.2801 80.1127 44.7756 80.1127 45.402C80.1127 45.8494 79.9702 46.2041 79.6852 46.4659C79.4002 46.7277 79.0223 46.9034 78.5517 46.9929C78.8931 47.0327 79.2063 47.1354 79.4913 47.3011C79.7763 47.4635 80.005 47.6823 80.1774 47.9574C80.353 48.2325 80.4409 48.5606 80.4409 48.9418C80.4409 49.3461 80.3365 49.7041 80.1277 50.0156C79.9189 50.3239 79.6156 50.5658 79.2179 50.7415C78.8234 50.9138 78.3478 51 77.791 51H74.1419ZM75.5389 49.7571H77.791C78.1589 49.7571 78.4473 49.6693 78.6561 49.4936C78.8649 49.3179 78.9693 49.0793 78.9693 48.7777C78.9693 48.4231 78.8649 48.1446 78.6561 47.9425C78.4473 47.737 78.1589 47.6342 77.791 47.6342H75.5389V49.7571ZM75.5389 46.5455H77.3237C77.6021 46.5455 77.8407 46.5057 78.0396 46.4261C78.2418 46.3466 78.3959 46.2339 78.502 46.0881C78.6113 45.9389 78.666 45.7633 78.666 45.5611C78.666 45.2661 78.545 45.0357 78.3031 44.87C78.0611 44.7043 77.7297 44.6214 77.3088 44.6214H75.5389V46.5455ZM87.247 46.5405V47.8281H83.1106V46.5405H87.247ZM83.5282 43.3636V51H82.0716V43.3636H83.5282ZM88.286 43.3636V51H86.8343V43.3636H88.286ZM93.4913 51.1541C92.7754 51.1541 92.1506 50.9901 91.617 50.6619C91.0834 50.3338 90.6691 49.8748 90.3741 49.2848C90.0791 48.6948 89.9316 48.0054 89.9316 47.2166C89.9316 46.4245 90.0791 45.7318 90.3741 45.1385C90.6691 44.5452 91.0834 44.0845 91.617 43.7564C92.1506 43.4283 92.7754 43.2642 93.4913 43.2642C94.2072 43.2642 94.832 43.4283 95.3656 43.7564C95.8992 44.0845 96.3135 44.5452 96.6085 45.1385C96.9035 45.7318 97.051 46.4245 97.051 47.2166C97.051 48.0054 96.9035 48.6948 96.6085 49.2848C96.3135 49.8748 95.8992 50.3338 95.3656 50.6619C94.832 50.9901 94.2072 51.1541 93.4913 51.1541ZM93.4963 49.9062C93.9603 49.9062 94.3448 49.7836 94.6497 49.5384C94.9546 49.2931 95.18 48.9666 95.3258 48.5589C95.475 48.1513 95.5495 47.7022 95.5495 47.2116C95.5495 46.7244 95.475 46.277 95.3258 45.8693C95.18 45.4583 94.9546 45.1286 94.6497 44.88C94.3448 44.6314 93.9603 44.5071 93.4963 44.5071C93.0289 44.5071 92.6412 44.6314 92.3329 44.88C92.028 45.1286 91.801 45.4583 91.6518 45.8693C91.506 46.277 91.4331 46.7244 91.4331 47.2116C91.4331 47.7022 91.506 48.1513 91.6518 48.5589C91.801 48.9666 92.028 49.2931 92.3329 49.5384C92.6412 49.7836 93.0289 49.9062 93.4963 49.9062ZM102.415 51V43.3636H108.645V51H107.188V44.6463H103.862V51H102.415ZM113.849 51.1541C113.133 51.1541 112.508 50.9901 111.974 50.6619C111.441 50.3338 111.027 49.8748 110.732 49.2848C110.437 48.6948 110.289 48.0054 110.289 47.2166C110.289 46.4245 110.437 45.7318 110.732 45.1385C111.027 44.5452 111.441 44.0845 111.974 43.7564C112.508 43.4283 113.133 43.2642 113.849 43.2642C114.565 43.2642 115.189 43.4283 115.723 43.7564C116.257 44.0845 116.671 44.5452 116.966 45.1385C117.261 45.7318 117.408 46.4245 117.408 47.2166C117.408 48.0054 117.261 48.6948 116.966 49.2848C116.671 49.8748 116.257 50.3338 115.723 50.6619C115.189 50.9901 114.565 51.1541 113.849 51.1541ZM113.854 49.9062C114.318 49.9062 114.702 49.7836 115.007 49.5384C115.312 49.2931 115.537 48.9666 115.683 48.5589C115.832 48.1513 115.907 47.7022 115.907 47.2116C115.907 46.7244 115.832 46.277 115.683 45.8693C115.537 45.4583 115.312 45.1286 115.007 44.88C114.702 44.6314 114.318 44.5071 113.854 44.5071C113.386 44.5071 112.999 44.6314 112.69 44.88C112.385 45.1286 112.158 45.4583 112.009 45.8693C111.863 46.277 111.79 46.7244 111.79 47.2116C111.79 47.7022 111.863 48.1513 112.009 48.5589C112.158 48.9666 112.385 49.2931 112.69 49.5384C112.999 49.7836 113.386 49.9062 113.854 49.9062ZM124.229 48.9169L127.595 43.3636H129.196V51H127.739V45.4418L124.388 51H122.773V43.3636H124.229V48.9169ZM130.248 44.6463V43.3636H136.691V44.6463H134.2V51H132.748V44.6463H130.248ZM141.124 51.1541C140.408 51.1541 139.783 50.9901 139.25 50.6619C138.716 50.3338 138.302 49.8748 138.007 49.2848C137.712 48.6948 137.564 48.0054 137.564 47.2166C137.564 46.4245 137.712 45.7318 138.007 45.1385C138.302 44.5452 138.716 44.0845 139.25 43.7564C139.783 43.4283 140.408 43.2642 141.124 43.2642C141.84 43.2642 142.465 43.4283 142.998 43.7564C143.532 44.0845 143.946 44.5452 144.241 45.1385C144.536 45.7318 144.684 46.4245 144.684 47.2166C144.684 48.0054 144.536 48.6948 144.241 49.2848C143.946 49.8748 143.532 50.3338 142.998 50.6619C142.465 50.9901 141.84 51.1541 141.124 51.1541ZM141.129 49.9062C141.593 49.9062 141.978 49.7836 142.282 49.5384C142.587 49.2931 142.813 48.9666 142.959 48.5589C143.108 48.1513 143.182 47.7022 143.182 47.2116C143.182 46.7244 143.108 46.277 142.959 45.8693C142.813 45.4583 142.587 45.1286 142.282 44.88C141.978 44.6314 141.593 44.5071 141.129 44.5071C140.662 44.5071 140.274 44.6314 139.966 44.88C139.661 45.1286 139.434 45.4583 139.285 45.8693C139.139 46.277 139.066 46.7244 139.066 47.2116C139.066 47.7022 139.139 48.1513 139.285 48.5589C139.434 48.9666 139.661 49.2931 139.966 49.5384C140.274 49.7836 140.662 49.9062 141.129 49.9062ZM151.225 43.3636V44.6463H147.81V51H146.343V43.3636H151.225ZM154.663 51.169C154.179 51.169 153.742 51.0795 153.35 50.9006C152.959 50.7183 152.65 50.4548 152.421 50.1101C152.195 49.7654 152.083 49.3428 152.083 48.8423C152.083 48.4115 152.166 48.0568 152.331 47.7784C152.497 47.5 152.721 47.2796 153.002 47.1172C153.284 46.9548 153.599 46.8321 153.947 46.7493C154.295 46.6664 154.65 46.6035 155.011 46.5604C155.468 46.5073 155.84 46.4643 156.125 46.4311C156.41 46.3946 156.617 46.3366 156.746 46.2571C156.875 46.1776 156.94 46.0483 156.94 45.8693V45.8345C156.94 45.4003 156.817 45.0639 156.572 44.8253C156.33 44.5866 155.969 44.4673 155.488 44.4673C154.988 44.4673 154.593 44.5784 154.305 44.8004C154.02 45.0192 153.823 45.2628 153.713 45.5312L152.316 45.2131C152.482 44.7491 152.724 44.3745 153.042 44.0895C153.364 43.8011 153.733 43.5923 154.151 43.4631C154.569 43.3305 155.008 43.2642 155.468 43.2642C155.773 43.2642 156.096 43.3007 156.438 43.3736C156.783 43.4432 157.104 43.5724 157.402 43.7614C157.704 43.9503 157.951 44.2204 158.143 44.5717C158.335 44.9197 158.431 45.3722 158.431 45.929V51H156.98V49.956H156.92C156.824 50.1482 156.68 50.3371 156.488 50.5227C156.295 50.7083 156.048 50.8625 155.747 50.9851C155.445 51.1077 155.084 51.169 154.663 51.169ZM154.986 49.9759C155.397 49.9759 155.748 49.8946 156.04 49.7322C156.335 49.5698 156.559 49.3577 156.711 49.0959C156.867 48.8307 156.945 48.5473 156.945 48.2457V47.2614C156.892 47.3144 156.789 47.3641 156.637 47.4105C156.488 47.4536 156.317 47.4917 156.125 47.5249C155.932 47.5547 155.745 47.5829 155.563 47.6094C155.381 47.6326 155.228 47.6525 155.105 47.669C154.817 47.7055 154.554 47.7668 154.315 47.853C154.08 47.9392 153.891 48.0634 153.748 48.2259C153.609 48.3849 153.539 48.5971 153.539 48.8622C153.539 49.2301 153.675 49.5085 153.947 49.6974C154.219 49.883 154.565 49.9759 154.986 49.9759ZM164.697 49.1605L167.163 43.3636H168.445L165.249 51H164.145L161.013 43.3636H162.281L164.697 49.1605ZM161.868 43.3636V51H160.411V43.3636H161.868ZM167.566 51V43.3636H169.012V51H167.566ZM20.9993 68V60.3636H27.2287V68H25.772V61.6463H22.446V68H20.9993ZM29.2161 70.8636V60.3636H30.6678V61.6016H30.7921C30.8783 61.4425 31.0025 61.2585 31.165 61.0497C31.3274 60.8409 31.5527 60.6586 31.8411 60.5028C32.1294 60.3438 32.5106 60.2642 32.9846 60.2642C33.601 60.2642 34.1512 60.42 34.6351 60.7315C35.119 61.0431 35.4985 61.4922 35.7736 62.0788C36.052 62.6655 36.1912 63.3714 36.1912 64.1967C36.1912 65.022 36.0537 65.7296 35.7786 66.3196C35.5035 66.9062 35.1257 67.3587 34.6451 67.6768C34.1645 67.9917 33.6159 68.1491 32.9995 68.1491C32.5355 68.1491 32.156 68.0713 31.861 67.9155C31.5693 67.7597 31.3406 67.5774 31.1749 67.3686C31.0092 67.1598 30.8816 66.9742 30.7921 66.8118H30.7026V70.8636H29.2161ZM30.6728 64.1818C30.6728 64.7187 30.7507 65.1894 30.9064 65.5938C31.0622 65.9981 31.2876 66.3146 31.5826 66.5433C31.8775 66.7687 32.2388 66.8814 32.6664 66.8814C33.1105 66.8814 33.4817 66.7637 33.78 66.5284C34.0783 66.2898 34.3037 65.9666 34.4561 65.5589C34.6119 65.1513 34.6898 64.6922 34.6898 64.1818C34.6898 63.678 34.6136 63.2256 34.4611 62.8246C34.312 62.4235 34.0866 62.107 33.785 61.875C33.4867 61.643 33.1138 61.527 32.6664 61.527C32.2355 61.527 31.8709 61.638 31.5726 61.8601C31.2776 62.0821 31.0539 62.392 30.9015 62.7898C30.749 63.1875 30.6728 63.6515 30.6728 64.1818ZM41.1479 68.1541C40.3955 68.1541 39.7476 67.9934 39.204 67.6719C38.6638 67.3471 38.2462 66.8913 37.9512 66.3047C37.6595 65.7147 37.5137 65.0237 37.5137 64.2315C37.5137 63.4493 37.6595 62.7599 37.9512 62.1634C38.2462 61.5668 38.6571 61.1011 39.1841 60.7663C39.7144 60.4316 40.3342 60.2642 41.0435 60.2642C41.4744 60.2642 41.892 60.3355 42.2963 60.478C42.7007 60.6205 43.0636 60.8442 43.3851 61.1491C43.7066 61.4541 43.9602 61.8501 44.1458 62.3374C44.3314 62.8213 44.4242 63.4096 44.4242 64.1023V64.6293H38.3539V63.5156H42.9675C42.9675 63.1245 42.888 62.7782 42.7289 62.4766C42.5698 62.1716 42.3461 61.9313 42.0577 61.7557C41.7727 61.58 41.4379 61.4922 41.0534 61.4922C40.6358 61.4922 40.2712 61.5949 39.9597 61.8004C39.6515 62.0026 39.4128 62.2678 39.2438 62.5959C39.0781 62.9207 38.9952 63.2737 38.9952 63.6548V64.5249C38.9952 65.0353 39.0847 65.4695 39.2637 65.8274C39.446 66.1854 39.6995 66.4588 40.0243 66.6477C40.3491 66.8333 40.7286 66.9261 41.1628 66.9261C41.4445 66.9261 41.7014 66.8864 41.9334 66.8068C42.1654 66.724 42.3659 66.6013 42.535 66.4389C42.704 66.2765 42.8333 66.076 42.9228 65.8374L44.3297 66.0909C44.217 66.5052 44.0149 66.8681 43.7232 67.1797C43.4348 67.4879 43.0719 67.7282 42.6344 67.9006C42.2002 68.0696 41.7047 68.1541 41.1479 68.1541ZM45.3278 70.2024V66.7124H45.9492C46.1083 66.5665 46.2425 66.3925 46.3519 66.1903C46.4646 65.9882 46.5591 65.7479 46.6353 65.4695C46.7148 65.1911 46.7811 64.8662 46.8342 64.495C46.8872 64.1205 46.9336 63.6929 46.9734 63.2124L47.212 60.3636H52.4023V66.7124H53.5756V70.2024H52.1239V68H46.7994V70.2024H45.3278ZM47.5401 66.7124H50.9506V61.6364H48.5444L48.3853 63.2124C48.3091 64.0144 48.2129 64.7105 48.0969 65.3004C47.9809 65.8871 47.7953 66.3577 47.5401 66.7124ZM56.1472 62.9886H58.3645C59.2992 62.9886 60.0184 63.2206 60.5222 63.6847C61.026 64.1487 61.2779 64.7469 61.2779 65.4794C61.2779 65.9567 61.1652 66.3859 60.9398 66.767C60.7144 67.1482 60.3846 67.4498 59.9505 67.6719C59.5163 67.8906 58.9876 68 58.3645 68H55.0286V60.3636H56.4853V66.7173H58.3645C58.7921 66.7173 59.1434 66.6063 59.4185 66.3842C59.6936 66.1589 59.8311 65.8722 59.8311 65.5241C59.8311 65.1562 59.6936 64.8563 59.4185 64.6243C59.1434 64.389 58.7921 64.2713 58.3645 64.2713H56.1472V62.9886ZM62.3617 68V60.3636H63.8482V68H62.3617ZM65.0973 70.2024V66.7124H65.7188C65.8778 66.5665 66.0121 66.3925 66.1214 66.1903C66.2341 65.9882 66.3286 65.7479 66.4048 65.4695C66.4844 65.1911 66.5507 64.8662 66.6037 64.495C66.6567 64.1205 66.7031 63.6929 66.7429 63.2124L66.9815 60.3636H72.1719V66.7124H73.3452V70.2024H71.8935V68H66.5689V70.2024H65.0973ZM67.3097 66.7124H70.7202V61.6364H68.3139L68.1548 63.2124C68.0786 64.0144 67.9825 64.7105 67.8665 65.3004C67.7505 65.8871 67.5649 66.3577 67.3097 66.7124ZM75.7377 70.8636C75.5157 70.8636 75.3135 70.8454 75.1312 70.8089C74.9489 70.7758 74.813 70.7393 74.7235 70.6996L75.0815 69.4815C75.3533 69.5545 75.5952 69.5859 75.8074 69.576C76.0195 69.5661 76.2067 69.4865 76.3691 69.3374C76.5349 69.1882 76.6807 68.9446 76.8066 68.6065L76.9906 68.0994L74.1966 60.3636H75.7875L77.7214 66.2898H77.801L79.7349 60.3636H81.3308L78.1838 69.0192C78.0379 69.4169 77.8523 69.7533 77.627 70.0284C77.4016 70.3068 77.1331 70.5156 76.8216 70.6548C76.51 70.794 76.1487 70.8636 75.7377 70.8636ZM93.6703 66.7173L93.5311 70.1875H92.0744V68H91.1248V66.7173H93.6703ZM82.7278 60.3636H84.1845V66.7124H86.8244V60.3636H88.2811V66.7124H90.921V60.3636H92.3777V68H82.7278V60.3636ZM98.4467 68.1541C97.6944 68.1541 97.0464 67.9934 96.5028 67.6719C95.9626 67.3471 95.545 66.8913 95.25 66.3047C94.9583 65.7147 94.8125 65.0237 94.8125 64.2315C94.8125 63.4493 94.9583 62.7599 95.25 62.1634C95.545 61.5668 95.956 61.1011 96.483 60.7663C97.0133 60.4316 97.633 60.2642 98.3423 60.2642C98.7732 60.2642 99.1908 60.3355 99.5952 60.478C99.9995 60.6205 100.362 60.8442 100.684 61.1491C101.005 61.4541 101.259 61.8501 101.445 62.3374C101.63 62.8213 101.723 63.4096 101.723 64.1023V64.6293H95.6527V63.5156H100.266C100.266 63.1245 100.187 62.7782 100.028 62.4766C99.8686 62.1716 99.6449 61.9313 99.3565 61.7557C99.0715 61.58 98.7367 61.4922 98.3523 61.4922C97.9347 61.4922 97.5701 61.5949 97.2585 61.8004C96.9503 62.0026 96.7116 62.2678 96.5426 62.5959C96.3769 62.9207 96.294 63.2737 96.294 63.6548V64.5249C96.294 65.0353 96.3835 65.4695 96.5625 65.8274C96.7448 66.1854 96.9983 66.4588 97.3232 66.6477C97.648 66.8333 98.0275 66.9261 98.4616 66.9261C98.7434 66.9261 99.0002 66.8864 99.2322 66.8068C99.4643 66.724 99.6648 66.6013 99.8338 66.4389C100.003 66.2765 100.132 66.076 100.222 65.8374L101.629 66.0909C101.516 66.5052 101.314 66.8681 101.022 67.1797C100.734 67.4879 100.371 67.7282 99.9332 67.9006C99.4991 68.0696 99.0036 68.1541 98.4467 68.1541ZM108.254 60.3636V61.6463H104.839V68H103.372V60.3636H108.254ZM112.687 68.1541C111.971 68.1541 111.346 67.9901 110.812 67.6619C110.279 67.3338 109.864 66.8748 109.569 66.2848C109.274 65.6948 109.127 65.0054 109.127 64.2166C109.127 63.4245 109.274 62.7318 109.569 62.1385C109.864 61.5452 110.279 61.0845 110.812 60.7564C111.346 60.4283 111.971 60.2642 112.687 60.2642C113.403 60.2642 114.027 60.4283 114.561 60.7564C115.095 61.0845 115.509 61.5452 115.804 62.1385C116.099 62.7318 116.246 63.4245 116.246 64.2166C116.246 65.0054 116.099 65.6948 115.804 66.2848C115.509 66.8748 115.095 67.3338 114.561 67.6619C114.027 67.9901 113.403 68.1541 112.687 68.1541ZM112.692 66.9062C113.156 66.9062 113.54 66.7836 113.845 66.5384C114.15 66.2931 114.375 65.9666 114.521 65.5589C114.67 65.1513 114.745 64.7022 114.745 64.2116C114.745 63.7244 114.67 63.277 114.521 62.8693C114.375 62.4583 114.15 62.1286 113.845 61.88C113.54 61.6314 113.156 61.5071 112.692 61.5071C112.224 61.5071 111.836 61.6314 111.528 61.88C111.223 62.1286 110.996 62.4583 110.847 62.8693C110.701 63.277 110.628 63.7244 110.628 64.2116C110.628 64.7022 110.701 65.1513 110.847 65.5589C110.996 65.9666 111.223 66.2931 111.528 66.5384C111.836 66.7836 112.224 66.9062 112.692 66.9062ZM120.865 70.2024V66.7124H121.486C121.645 66.5665 121.78 66.3925 121.889 66.1903C122.002 65.9882 122.096 65.7479 122.172 65.4695C122.252 65.1911 122.318 64.8662 122.371 64.495C122.424 64.1205 122.471 63.6929 122.51 63.2124L122.749 60.3636H127.939V66.7124H129.113V70.2024H127.661V68H122.336V70.2024H120.865ZM123.077 66.7124H126.488V61.6364H124.081L123.922 63.2124C123.846 64.0144 123.75 64.7105 123.634 65.3004C123.518 65.8871 123.332 66.3577 123.077 66.7124ZM135.741 63.5405V64.8281H131.605V63.5405H135.741ZM132.022 60.3636V68H130.566V60.3636H132.022ZM136.78 60.3636V68H135.328V60.3636H136.78ZM143.323 68V61.6314H141.493C141.059 61.6314 140.721 61.7325 140.479 61.9347C140.237 62.1368 140.116 62.402 140.116 62.7301C140.116 63.0549 140.227 63.3168 140.449 63.5156C140.675 63.7112 140.989 63.8089 141.394 63.8089H143.755V65.0121H141.394C140.83 65.0121 140.343 64.9193 139.932 64.7337C139.525 64.5447 139.21 64.2779 138.988 63.9332C138.769 63.5885 138.659 63.1809 138.659 62.7102C138.659 62.2296 138.772 61.8153 138.998 61.4673C139.226 61.116 139.553 60.8442 139.977 60.652C140.404 60.4598 140.91 60.3636 141.493 60.3636H144.72V68H143.323ZM138.311 68L140.464 64.142H141.985L139.833 68H138.311Z" fill="#666666"/>
</svg>
